name analog
datacolumns 19
datarows 55
range 0.0 0.027
endheader
time	ground_force_vx	ground_force_vy	ground_force_vz	ground_force_px	ground_force_py	ground_force_pz	l_ground_force_vx	l_ground_force_vy	l_ground_force_vz	l_ground_force_px	l_ground_force_py	l_ground_force_pz	ground_torque_x	ground_torque_y	ground_torque_z	l_ground_torque_x	l_ground_torque_y	l_ground_torque_z
0.0	-0.0	-0.0	-0.0	7.80435848236084	19.2122802734375	-548.47607421875	-2.4378702640533447	-33.604732513427734	-264.2945861816406	-0.0	-0.0	-0.0	-0.0	-0.0	-0.0	76938.890625	-8881.8642578125	-926.4915771484376
0.0005	-0.0	-0.0	-0.0	7.982810974121094	19.15997886657715	-547.9768676757812	-2.5266122817993164	-33.59821319580078	-265.31640625	-0.0	-0.0	-0.0	-0.0	-0.0	-0.0	77073.8046875	-9093.3310546875	-1046.3719482421875
0.001	-0.0	-0.0	-0.0	7.709242820739746	18.76344108581543	-547.7939453125	-2.618577003479004	-33.7878532409668	-264.8251647949219	-0.0	-0.0	-0.0	-0.0	-0.0	-0.0	77186.59375	-8923.9296875	-1020.0977172851562
0.0015	-0.0	-0.0	-0.0	7.188730239868164	18.76049423217773	-546.7340698242188	-2.9243106842041016	-33.958126068115234	-265.355224609375	-0.0	-0.0	-0.0	-0.0	-0.0	-0.0	77414.515625	-8938.5419921875	-1107.222900390625
0.002	-0.0	-0.0	-0.0	7.453371047973633	18.947359085083008	-548.3175048828125	-2.887741804122925	-33.91861343383789	-266.06573486328125	-0.0	-0.0	-0.0	-0.0	-0.0	-0.0	77556.546875	-8729.6611328125	-1078.5745849609375
0.0025	-0.0	-0.0	-0.0	7.6721038818359375	18.809301376342773	-550.5853881835938	-3.282299041748047	-33.95216751098633	-265.5238647460937	-0.0	-0.0	-0.0	-0.0	-0.0	-0.0	77596.625	-8719.58203125	-1195.4989013671875
0.003	-0.0	-0.0	-0.0	8.212800025939941	18.58233070373535	-549.3767700195312	-3.3251798152923584	-34.04360580444336	-265.5820617675781	-0.0	-0.0	-0.0	-0.0	-0.0	-0.0	77560.8671875	-8579.5029296875	-1286.565673828125
0.0035	-0.0	-0.0	-0.0	8.255970001220703	18.709396362304688	-549.7192993164062	-3.462618827819824	-33.87858200073242	-265.355224609375	-0.0	-0.0	-0.0	-0.0	-0.0	-0.0	77355.703125	-8386.423828125	-1376.582763671875
0.004	-0.0	-0.0	-0.0	8.293985366821289	18.498443603515625	-548.680419921875	-3.685735940933228	-33.96390914916992	-264.9949645996094	-0.0	-0.0	-0.0	-0.0	-0.0	-0.0	77191.9453125	-8483.28515625	-1435.1220703125
0.0045000000000000005	-0.0	-0.0	-0.0	8.474998474121094	18.31000518798828	-549.5380249023438	-3.817317008972168	-33.599552154541016	-263.969482421875	-0.0	-0.0	-0.0	-0.0	-0.0	-0.0	77211.3046875	-8168.18994140625	-1535.7249755859375
0.005	-0.0	-0.0	-0.0	8.429155349731445	18.452465057373047	-552.17236328125	-4.17210865020752	-33.380218505859375	-264.3183898925781	-0.0	-0.0	-0.0	-0.0	-0.0	-0.0	77095.2734375	-7962.18505859375	-1598.923583984375
0.0055	-0.0	-0.0	-0.0	8.419583320617676	17.965776443481445	-552.888916015625	-3.941056728363037	-32.59070587158203	-262.4029846191406	-0.0	-0.0	-0.0	-0.0	-0.0	-0.0	76954.1640625	-8122.5927734375	-1671.387939453125
0.006	-0.0	-0.0	-0.0	8.516109466552734	17.823753356933594	-552.5639038085938	-4.169406890869141	-32.36862564086914	-262.0433349609375	-0.0	-0.0	-0.0	-0.0	-0.0	-0.0	76675.578125	-7816.154296875	-1760.51025390625
0.006500000000000001	-0.0	-0.0	-0.0	8.385787963867188	17.55868911743164	-552.7085571289062	-3.905787467956543	-32.28282928466797	-261.3449401855469	-0.0	-0.0	-0.0	-0.0	-0.0	-0.0	76232.796875	-7472.701171875	-1878.9718017578125
0.007	-0.0	-0.0	-0.0	8.250869750976562	17.465152740478516	-553.0885009765625	-4.653655529022217	-32.32087707519531	-260.326171875	-0.0	-0.0	-0.0	-0.0	-0.0	-0.0	76043.59375	-7524.10595703125	-1986.2181396484373
0.0075	-0.0	-0.0	-0.0	7.8983283042907715	17.069536209106445	-554.3032836914062	-4.783277988433838	-31.752824783325195	-258.0323486328125	-0.0	-0.0	-0.0	-0.0	-0.0	-0.0	75714.359375	-7179.6220703125	-2089.533447265625
0.008	-0.0	-0.0	-0.0	7.1368408203125	17.382495880126953	-555.552001953125	-4.876786708831787	-31.26128387451172	-256.98468017578125	-0.0	-0.0	-0.0	-0.0	-0.0	-0.0	75352.8984375	-7040.384765625	-2207.319091796875
0.0085	-0.0	-0.0	-0.0	6.964443683624268	16.75250244140625	-556.7841796875	-5.106481075286865	-30.867311477661133	-255.05084228515625	-0.0	-0.0	-0.0	-0.0	-0.0	-0.0	74798.328125	-6929.85302734375	-2310.059814453125
0.009000000000000001	-0.0	-0.0	-0.0	6.910912036895752	17.07137107849121	-558.2200927734375	-5.231764316558838	-30.24693298339844	-253.82467651367188	-0.0	-0.0	-0.0	-0.0	-0.0	-0.0	74768.1875	-6741.53662109375	-2548.0419921875
0.0095	-0.0	-0.0	-0.0	6.470555305480957	17.374847412109375	-560.49658203125	-5.500068664550781	-30.06621742248535	-253.29710388183597	-0.0	-0.0	-0.0	-0.0	-0.0	-0.0	74559.7890625	-6523.7705078125	-2679.205810546875
0.01	-0.0	-0.0	-0.0	6.332135677337647	17.027524948120117	-563.3363037109375	-5.989002227783203	-29.980113983154297	-251.0561370849609	-0.0	-0.0	-0.0	-0.0	-0.0	-0.0	73755.15625	-6259.1376953125	-2845.132568359375
0.0105	-0.0	-0.0	-0.0	5.756684303283691	17.247600555419922	-564.021484375	-6.036284923553467	-29.542619705200195	-249.27870178222656	-0.0	-0.0	-0.0	-0.0	-0.0	-0.0	73502.5546875	-6003.66796875	-2963.69921875
0.011	-0.0	-0.0	-0.0	5.490608215332031	17.202167510986328	-568.099853515625	-6.38336992263794	-29.19126510620117	-247.39263916015625	-0.0	-0.0	-0.0	-0.0	-0.0	-0.0	73283.8515625	-5934.08984375	-3067.3505859375
0.0115	-0.0	-0.0	-0.0	4.773572444915772	17.197311401367188	-568.9921264648438	-6.694876194000244	-28.836105346679688	-245.98097229003903	-0.0	-0.0	-0.0	-0.0	-0.0	-0.0	72472.4453125	-5688.04052734375	-3143.8173828125
0.012	-0.0	-0.0	-0.0	4.5966620445251465	17.114582061767578	-572.1698608398438	-6.874192714691162	-28.83791923522949	-244.2350616455078	-0.0	-0.0	-0.0	-0.0	-0.0	-0.0	71978.2265625	-5468.0771484375	-3320.052978515625
0.0125	-0.0	-0.0	-0.0	3.97060489654541	17.025379180908203	-573.575927734375	-6.655022621154785	-28.706254959106445	-242.64013671875	-0.0	-0.0	-0.0	-0.0	-0.0	-0.0	71370.53125	-5191.70751953125	-3334.969970703125
0.013000000000000001	-0.0	-0.0	-0.0	3.695836067199707	17.11587905883789	-576.7372436523438	-7.185573577880859	-28.26128387451172	-240.74984741210935	-0.0	-0.0	-0.0	-0.0	-0.0	-0.0	70790.3671875	-5104.1240234375	-3587.083251953125
0.0135	-0.0	-0.0	-0.0	3.0743892192840576	16.977319717407227	-579.9375	-7.362995147705078	-28.17936515808105	-238.99740600585935	-0.0	-0.0	-0.0	-0.0	-0.0	-0.0	70282.8515625	-4650.13916015625	-3647.56787109375
0.014	-0.0	-0.0	-0.0	2.678868293762207	16.802993774414062	-583.1101684570312	-7.457774639129639	-27.734519958496094	-236.02052307128903	-0.0	-0.0	-0.0	-0.0	-0.0	-0.0	69498.828125	-4394.90673828125	-3661.53271484375
0.0145	-0.0	-0.0	-0.0	2.588329792022705	17.291297912597656	-586.985107421875	-7.808014869689941	-27.730091094970703	-233.74835205078125	-0.0	-0.0	-0.0	-0.0	-0.0	-0.0	68902.875	-4330.9736328125	-3795.987060546875
0.015	-0.0	-0.0	-0.0	2.631134033203125	17.29360008239746	-589.64990234375	-7.979790210723877	-27.3769474029541	-231.84214782714844	-0.0	-0.0	-0.0	-0.0	-0.0	-0.0	68353.96875	-4017.668212890625	-3840.687744140625
0.0155	-0.0	-0.0	-0.0	2.18619704246521	17.335323333740234	-593.3465576171875	-8.162713050842285	-27.02643585205078	-230.4400634765625	-0.0	-0.0	-0.0	-0.0	-0.0	-0.0	67609.484375	-3737.3017578125	-3898.217529296875
0.016	-0.0	-0.0	-0.0	2.5891387462615967	17.64781951904297	-596.8741455078125	-8.518754005432129	-26.98164749145508	-227.11569213867188	-0.0	-0.0	-0.0	-0.0	-0.0	-0.0	67176.921875	-3407.994873046875	-3987.472412109375
0.0165	-0.0	-0.0	-0.0	2.722352266311645	17.380428314208984	-599.7108764648438	-8.607339859008789	-27.206653594970703	-225.01171875	-0.0	-0.0	-0.0	-0.0	-0.0	-0.0	66261.78125	-3355.316650390625	-4121.30126953125
0.017	-0.0	-0.0	-0.0	2.812335252761841	17.602813720703125	-602.3501586914062	-8.692532539367676	-26.80731201171875	-223.62496948242188	-0.0	-0.0	-0.0	-0.0	-0.0	-0.0	65743.1875	-3070.327392578125	-4136.66845703125
0.0175	-0.0	-0.0	-0.0	3.2091519832611084	17.55707359313965	-608.1759033203125	-8.871078491210938	-26.452869415283203	-221.18133544921875	-0.0	-0.0	-0.0	-0.0	-0.0	-0.0	64963.8828125	-2731.121337890625	-4314.31396484375
0.018000000000000002	-0.0	-0.0	-0.0	2.7647688388824463	17.11152458190918	-611.179443359375	-9.005645751953125	-26.18488883972168	-217.697998046875	-0.0	-0.0	-0.0	-0.0	-0.0	-0.0	64416.9375	-2681.981689453125	-4418.3330078125
0.0185	-0.0	-0.0	-0.0	3.1686832904815674	16.625211715698242	-615.5818481445312	-9.490198135375977	-26.143218994140625	-217.18325805664065	-0.0	-0.0	-0.0	-0.0	-0.0	-0.0	63787.53515625	-2271.725341796875	-4492.970703125
0.019	-0.0	-0.0	-0.0	3.524120807647705	16.624345779418945	-618.0697021484375	-9.57905387878418	-25.701610565185547	-214.3858184814453	-0.0	-0.0	-0.0	-0.0	-0.0	-0.0	63033.72265625	-1783.8218994140625	-4612.12548828125
0.0195	-0.0	-0.0	-0.0	4.059357643127441	16.6236572265625	-622.1386108398438	-10.2481050491333	-25.30376243591309	-210.71774291992188	-0.0	-0.0	-0.0	-0.0	-0.0	-0.0	62382.3671875	-1648.303955078125	-4744.99560546875
0.02	-0.0	-0.0	-0.0	4.148531913757324	16.399993896484375	-623.7158203125	-10.2471923828125	-24.81693649291992	-208.6166534423828	-0.0	-0.0	-0.0	-0.0	-0.0	-0.0	61628.984375	-1531.4122314453125	-4834.1201171875
0.0205	-0.0	-0.0	-0.0	4.683344841003418	16.1773738861084	-627.77978515625	-10.68932056427002	-24.28715133666992	-205.47442626953125	-0.0	-0.0	-0.0	-0.0	-0.0	-0.0	60937.30859375	-1236.0865478515625	-4952.7236328125
0.021	-0.0	-0.0	-0.0	5.08573579788208	16.444007873535156	-629.36669921875	-10.734619140625	-23.626968383789062	-203.20382690429688	-0.0	-0.0	-0.0	-0.0	-0.0	-0.0	60173.015625	-746.1724243164062	-4982.259765625
0.021500000000000002	-0.0	-0.0	-0.0	5.039950847625732	16.53413200378418	-634.3123168945312	-10.956594467163086	-23.27249526977539	-200.9378204345703	-0.0	-0.0	-0.0	-0.0	-0.0	-0.0	59327.22265625	-642.6065673828125	-5086.61669921875
0.022	-0.0	-0.0	-0.0	5.531719207763672	15.909442901611328	-637.6668090820312	-11.04378890991211	-22.786527633666992	-198.1407623291016	-0.0	-0.0	-0.0	-0.0	-0.0	-0.0	58537.88671875	-327.6584777832031	-5264.02001953125
0.0225	-0.0	-0.0	-0.0	6.022136211395264	15.776251792907717	-640.667724609375	-11.221705436706545	-22.301433563232425	-195.6986541748047	-0.0	-0.0	-0.0	-0.0	-0.0	-0.0	57683.7421875	-17.48490333557129	-5234.93505859375
0.023	-0.0	-0.0	-0.0	6.378306865692139	16.355379104614258	-643.4934692382812	-11.310452461242676	-21.904464721679688	-192.90286254882807	-0.0	-0.0	-0.0	-0.0	-0.0	-0.0	57066.890625	325.5858459472656	-5323.12451171875
0.0235	-0.0	-0.0	-0.0	6.557034969329834	16.08810043334961	-647.7320556640625	-11.265996932983398	-21.41841697692871	-189.9406280517578	-0.0	-0.0	-0.0	-0.0	-0.0	-0.0	56278.40625	501.737060546875	-5323.3154296875
0.024	-0.0	-0.0	-0.0	6.8244733810424805	15.999037742614746	-648.791259765625	-11.089058876037598	-21.020980834960938	-186.6186370849609	-0.0	-0.0	-0.0	-0.0	-0.0	-0.0	55231.265625	772.3222045898438	-5397.0732421875
0.0245	-0.0	-0.0	-0.0	7.315361499786377	16.221832275390625	-651.6177978515625	-10.77813720703125	-20.79983139038086	-184.70120239257807	-0.0	-0.0	-0.0	-0.0	-0.0	-0.0	54358.9609375	1079.7506103515625	-5293.197265625
0.025	-0.0	-0.0	-0.0	7.939735412597656	15.864866256713867	-655.6775512695312	-10.778398513793944	-20.26978874206543	-181.5582427978516	-0.0	-0.0	-0.0	-0.0	-0.0	-0.0	53436.484375	1369.6990966796875	-5307.9091796875
0.025500000000000002	-0.0	-0.0	-0.0	8.384806632995605	16.044208526611328	-656.2092895507812	-10.733993530273438	-20.402305603027344	-178.5910186767578	-0.0	-0.0	-0.0	-0.0	-0.0	-0.0	52880.5859375	1546.0125732421875	-5307.845703125
0.026000000000000002	-0.0	-0.0	-0.0	8.563911437988281	15.68784236907959	-657.4486083984375	-10.467872619628906	-19.65155029296875	-176.84500122070312	-0.0	-0.0	-0.0	-0.0	-0.0	-0.0	52111.6796875	1909.2911376953125	-5248.115234375
0.0265	-0.0	-0.0	-0.0	8.875519752502441	15.909221649169922	-658.322998046875	-10.201740264892578	-19.21026611328125	-172.48184204101562	-0.0	-0.0	-0.0	-0.0	-0.0	-0.0	51325.34375	2010.1492919921875	-5247.77734375
0.027	-0.0	-0.0	-0.0	8.875337600708008	15.819981575012209	-659.9175415039062	-10.157288551330566	-19.25432014465332	-171.25772094726562	-0.0	-0.0	-0.0	-0.0	-0.0	-0.0	50732.5703125	2158.14599609375	-5322.0419921875
